<?xml version="1.0" encoding="UTF-8" standalone="no" ?>
<!DOCTYPE svg PUBLIC "-//W3C//DTD SVG 1.1//EN" "http://www.w3.org/Graphics/SVG/1.1/DTD/svg11.dtd">
<svg xmlns="http://www.w3.org/2000/svg" xmlns:xlink="http://www.w3.org/1999/xlink" version="1.1" width="1080" height="1080" viewBox="0 0 1080 1080" xml:space="preserve">
<desc>Created with Fabric.js 5.2.4</desc>
<defs>
</defs>
<rect x="0" y="0" width="100%" height="100%" fill="transparent"></rect>
<g transform="matrix(1 0 0 1 540 540)" id="c5951b94-0e9a-4a6a-8d88-caec28ee5fd7"  >
</g>
<g transform="matrix(1 0 0 1 540 540)" id="1dec3ca9-2da8-4c75-8217-6ac21cef2940"  >
<rect style="stroke: none; stroke-width: 1; stroke-dasharray: none; stroke-linecap: butt; stroke-dashoffset: 0; stroke-linejoin: miter; stroke-miterlimit: 4; fill: rgb(255,255,255); fill-rule: nonzero; opacity: 1; visibility: hidden;" vector-effect="non-scaling-stroke"  x="-540" y="-540" rx="0" ry="0" width="1080" height="1080" />
</g>
<g transform="matrix(1.3 0 0 1.3 721.28 609.77)"  >
<path style="stroke: none; stroke-width: 1; stroke-dasharray: none; stroke-linecap: butt; stroke-dashoffset: 0; stroke-linejoin: miter; stroke-miterlimit: 4; fill: rgb(1,9,85); fill-rule: nonzero; opacity: 1;" vector-effect="non-scaling-stroke"  transform=" translate(-382.93, -310.3)" d="M 382.931 367.678 C 396.264 367.678 407.111 356.844 407.111 343.527 L 407.111 334.377 L 416.291 334.377 C 448.33299999999997 333.159 448.308 287.28200000000004 416.291 286.075 L 407.111 286.075 L 407.111 276.925 C 405.892 244.92100000000002 359.959 244.94500000000002 358.752 276.925 L 358.752 286.075 L 349.572 286.075 C 317.532 287.293 317.555 333.16999999999996 349.572 334.377 L 358.752 334.377 L 358.752 343.527 C 358.75100000000003 356.844 369.598 367.678 382.931 367.678 z M 349.57099999999997 319.377 C 337.419 318.946 337.429 301.503 349.57099999999997 301.075 L 366.251 301.075 C 370.39399999999995 301.075 373.751 297.71799999999996 373.751 293.575 L 373.751 276.925 C 374.183 264.81 391.68199999999996 264.819 392.10999999999996 276.925 L 392.10999999999996 293.575 C 392.10999999999996 297.71799999999996 395.467 301.075 399.60999999999996 301.075 L 416.28999999999996 301.075 C 428.44199999999995 301.507 428.43399999999997 318.949 416.28999999999996 319.377 L 399.60999999999996 319.377 C 395.467 319.377 392.10999999999996 322.73400000000004 392.10999999999996 326.877 L 392.10999999999996 343.527 C 391.67799999999994 355.642 374.179 355.633 373.751 343.527 L 373.751 326.877 C 373.751 322.73400000000004 370.39399999999995 319.377 366.251 319.377 z" stroke-linecap="round" />
</g>
<g transform="matrix(1.3 0 0 1.3 562.34 538.63)"  >
<path style="stroke: none; stroke-width: 0; stroke-dasharray: none; stroke-linecap: butt; stroke-dashoffset: 0; stroke-linejoin: miter; stroke-miterlimit: 4; fill: rgb(255,255,255); fill-rule: nonzero; opacity: 1;" vector-effect="non-scaling-stroke"  transform=" translate(-261.07, -255.98)" d="M 511.767 264.52 C 511.42 224.51899999999998 482.561 190.23199999999997 442.438 192.28499999999997 C 424.817 193.10499999999996 406.42199999999997 200.81899999999996 389.07099999999997 214.59999999999997 C 385.94 151.89899999999997 379.049 106.23399999999997 375.085 84.00299999999996 C 372.82099999999997 71.31599999999996 362.731 61.57599999999996 349.97799999999995 59.76599999999996 C 335.73499999999996 57.743999999999964 312.83599999999996 54.96699999999996 282.79299999999995 52.868999999999964 C 282.73499999999996 52.471999999999966 282.691 52.06799999999996 282.62899999999996 51.672999999999966 C 280.87499999999994 40.55399999999997 271.45799999999997 32.16899999999997 260.23699999999997 31.735999999999965 C 253.26999999999995 31.467999999999964 244.04199999999997 31.172999999999966 232.86299999999997 30.948999999999966 C 224.38599999999997 -10.330000000000037 166.10799999999998 -10.301000000000034 157.64599999999996 30.948999999999966 C 146.46699999999996 31.173999999999968 137.23899999999995 31.467999999999964 130.27099999999996 31.736999999999966 C 119.04599999999996 32.16899999999997 109.62799999999996 40.55599999999997 107.87599999999996 51.68199999999997 C 107.81399999999996 52.07399999999997 107.77099999999996 52.474999999999966 107.71399999999996 52.86999999999997 C 77.65099999999995 54.96799999999997 54.74999999999996 57.74699999999997 40.51399999999995 59.76699999999997 C 27.757999999999953 61.57699999999997 17.667999999999953 71.31599999999997 15.408999999999953 84.00199999999997 C 13.647999999999954 93.88899999999997 11.966999999999953 104.66699999999997 10.409999999999954 116.03999999999996 C 9.847999999999955 120.14399999999996 12.719999999999954 123.92599999999996 16.823999999999955 124.48699999999997 C 20.843999999999955 125.06499999999997 24.727999999999955 122.19499999999996 25.270999999999955 118.07299999999996 C 26.799999999999955 106.89899999999997 28.450999999999954 96.32099999999997 30.175999999999956 86.63299999999997 C 31.295999999999957 80.34399999999997 36.296999999999954 75.51499999999997 42.62099999999995 74.61799999999997 C 56.26599999999995 72.67999999999996 78.02899999999995 70.03499999999997 106.57199999999995 67.98799999999997 C 106.48399999999995 74.13199999999998 106.96299999999995 80.29899999999998 107.87599999999995 86.15799999999997 C 109.62699999999995 97.28499999999997 119.04599999999995 105.67399999999998 130.27299999999994 106.10299999999998 C 154.35299999999995 107.52399999999999 236.15499999999994 107.52399999999999 260.23099999999994 106.10299999999998 C 271.4549999999999 105.67299999999997 280.8739999999999 97.28899999999999 282.62699999999995 86.16599999999998 C 283.542 80.30699999999999 284.02199999999993 74.13599999999998 283.93499999999995 67.98799999999999 C 312.45899999999995 70.03499999999998 334.21799999999996 72.67999999999998 347.8689999999999 74.61699999999999 C 354.1909999999999 75.514 359.1939999999999 80.34499999999998 360.3159999999999 86.63699999999999 C 364.15399999999994 108.16199999999998 370.78399999999993 152.036 373.9389999999999 212.38299999999998 C 347.0919999999999 192.224 318.3329999999999 186.84499999999997 294.2329999999999 197.71099999999998 C 270.4179999999999 208.44799999999998 255.0429999999999 233.85 254.1079999999999 264.001 C 254.3039999999999 330.176 305.0749999999999 378.462 366.8439999999999 411.61199999999997 C 367.5459999999999 411.98199999999997 368.2589999999999 412.32099999999997 368.97899999999987 412.64 C 366.00899999999984 440.69 362.66899999999987 461.90999999999997 360.3219999999999 475.07399999999996 C 359.19799999999987 481.38499999999993 354.1919999999999 486.22299999999996 347.8669999999999 487.11699999999996 C 323.4289999999999 491.84099999999995 218.1499999999999 499.4 155.5029999999999 496.19199999999995 C 151.3879999999999 496.0559999999999 147.8969999999999 499.31499999999994 147.7759999999999 503.45799999999997 C 147.6479999999999 507.599 150.9009999999999 511.058 155.0419999999999 511.18499999999995 C 218.69499999999988 514.429 324.9269999999999 506.77399999999994 349.9639999999999 501.96999999999997 C 362.7279999999999 500.167 372.8239999999999 490.417 375.08999999999986 477.707 C 377.44199999999984 464.517 380.76999999999987 443.385 383.7499999999999 415.574 C 388.9999999999999 415.449 394.22899999999987 414.13800000000003 399.0149999999999 411.612 C 425.6869999999999 397.53900000000004 448.2399999999999 381.355 466.0479999999999 363.511 C 468.9739999999999 360.579 468.9689999999999 355.83000000000004 466.03699999999986 352.90500000000003 C 463.10399999999987 349.97900000000004 458.35499999999985 349.983 455.43099999999987 352.91600000000005 C 438.68899999999985 369.69100000000003 417.35199999999986 384.97700000000003 392.0149999999999 398.34700000000004 C 386.32599999999985 401.34900000000005 379.53499999999985 401.34900000000005 373.84499999999986 398.34700000000004 C 306.75699999999983 362.946 267.6009999999999 312.89700000000005 269.10199999999986 264.466 C 271.76399999999984 206.86100000000002 325.4279999999999 189.623 369.50899999999984 227.99 C 377.28699999999986 234.443 388.57599999999985 234.442 396.35099999999983 227.989 C 425.74899999999985 203.597 457.0559999999998 200.433 478.05699999999985 219.732 C 489.65299999999985 230.386 496.29899999999986 246.429 496.77099999999984 264.904 C 497.31199999999984 286.043 489.7769999999998 308.452 474.97999999999985 329.707 C 472.61399999999986 333.106 473.45099999999985 337.781 476.84999999999985 340.147 C 480.24899999999985 342.514 484.92499999999984 341.675 487.28999999999985 338.277 C 503.9259999999999 314.381 512.3899999999999 288.876 511.7669999999998 264.52 z M 195.255 14.797999999999973 C 205.516 14.797999999999973 214.242 21.471999999999973 217.33499999999998 30.704999999999973 C 203.879 30.538999999999973 186.63099999999997 30.538999999999973 173.17399999999998 30.704999999999973 C 176.26799999999997 21.471999999999973 184.99299999999997 14.797999999999973 195.25499999999997 14.797999999999973 z M 267.813 83.82799999999997 C 267.171 87.89299999999997 263.743 90.95699999999998 259.659 91.11399999999998 C 235.82999999999998 92.52099999999997 154.685 92.52099999999997 130.849 91.11399999999998 C 126.764 90.95699999999998 123.335 87.89199999999998 122.69599999999998 83.82599999999998 C 121.17799999999998 74.25299999999999 121.17799999999998 63.585999999999984 122.69599999999998 54.01299999999998 C 123.33599999999998 49.94799999999998 126.76399999999998 46.88199999999998 130.849 46.72499999999998 C 154.67999999999998 45.30999999999998 235.83299999999997 45.30999999999998 259.65999999999997 46.72499999999998 C 263.743 46.88299999999998 267.17199999999997 49.94699999999998 267.813 54.01099999999998 C 269.33299999999997 63.57799999999998 269.33299999999997 74.26099999999998 267.813 83.82799999999997 z" stroke-linecap="round" />
</g>
<g transform="matrix(1.3 0 0 1.3 307.11 629.1)"  >
<path style="stroke: none; stroke-width: 1; stroke-dasharray: none; stroke-linecap: butt; stroke-dashoffset: 0; stroke-linejoin: miter; stroke-miterlimit: 4; fill: rgb(255,255,255); fill-rule: nonzero; opacity: 1;" vector-effect="non-scaling-stroke"  transform=" translate(-64.36, -325.18)" d="M 121.492 494.679 C 85.787 492.59099999999995 58.897000000000006 489.414 42.62700000000001 487.11699999999996 C 36.30000000000001 486.224 31.29600000000001 481.39599999999996 30.17500000000001 475.102 C 17.232000000000014 423.618 8.640000000000011 236.02499999999998 21.534000000000013 148.97699999999998 C 21.971000000000014 144.85799999999998 18.985000000000014 141.16499999999996 14.866000000000014 140.72899999999998 C 10.741000000000014 140.291 7.053000000000014 143.279 6.6180000000000145 147.397 C -6.456999999999985 235.35699999999997 2.2990000000000146 425.76099999999997 15.407000000000014 477.733 C 17.668000000000013 490.427 27.763000000000012 500.168 40.52900000000001 501.97 C 57.07700000000001 504.30600000000004 84.405 507.536 120.617 509.65400000000005 C 124.70700000000001 509.90700000000004 128.311 506.74700000000007 128.542 502.60400000000004 C 128.784 498.46900000000005 125.628 494.92100000000005 121.492 494.67900000000003 z" stroke-linecap="round" />
</g>
<g transform="matrix(1.3 0 0 1.3 336.78 748.46)"  >
<path style="stroke: none; stroke-width: 1; stroke-dasharray: none; stroke-linecap: butt; stroke-dashoffset: 0; stroke-linejoin: miter; stroke-miterlimit: 4; fill: rgb(255,255,255); fill-rule: nonzero; opacity: 1;" vector-effect="non-scaling-stroke"  transform=" translate(-87.17, -416.98)" d="M 87.173 442.114 C 101.078 442.114 112.392 430.80199999999996 112.392 416.89599999999996 C 111.124 383.48699999999997 63.217 383.496 61.95399999999999 416.89599999999996 C 61.95399999999999 430.80099999999993 73.268 442.114 87.173 442.114 z M 87.173 406.678 C 92.808 406.678 97.392 411.262 97.392 416.896 C 96.878 430.433 77.466 430.42900000000003 76.954 416.896 C 76.954 411.262 81.538 406.678 87.17299999999999 406.678 z" stroke-linecap="round" />
</g>
<g transform="matrix(1.3 0 0 1.3 497.27 748.36)"  >
<path style="stroke: none; stroke-width: 1; stroke-dasharray: none; stroke-linecap: butt; stroke-dashoffset: 0; stroke-linejoin: miter; stroke-miterlimit: 4; fill: rgb(255,255,255); fill-rule: nonzero; opacity: 1;" vector-effect="non-scaling-stroke"  transform=" translate(-210.62, -416.9)" d="M 283.954 416.896 C 283.954 412.75300000000004 280.597 409.396 276.454 409.396 L 144.719 409.396 C 134.803 409.70300000000003 134.81 424.093 144.719 424.396 L 276.454 424.396 C 280.597 424.396 283.954 421.039 283.954 416.896 z" stroke-linecap="round" />
</g>
<g transform="matrix(1.3 0 0 1.3 336.78 436.59)"  >
<path style="stroke: none; stroke-width: 1; stroke-dasharray: none; stroke-linecap: butt; stroke-dashoffset: 0; stroke-linejoin: miter; stroke-miterlimit: 4; fill: rgb(255,255,255); fill-rule: nonzero; opacity: 1;" vector-effect="non-scaling-stroke"  transform=" translate(-87.17, -177.1)" d="M 87.173 202.233 C 101.078 202.233 112.392 190.921 112.392 177.01500000000001 C 111.124 143.60600000000002 63.217 143.615 61.95399999999999 177.01500000000001 C 61.95399999999999 190.92100000000002 73.268 202.233 87.173 202.233 z M 87.173 166.798 C 92.808 166.798 97.392 171.382 97.392 177.016 C 96.878 190.553 77.466 190.54899999999998 76.954 177.016 C 76.954 171.382 81.538 166.798 87.17299999999999 166.798 z" stroke-linecap="round" />
</g>
<g transform="matrix(1.3 0 0 1.3 477.28 436.49)"  >
<path style="stroke: none; stroke-width: 1; stroke-dasharray: none; stroke-linecap: butt; stroke-dashoffset: 0; stroke-linejoin: miter; stroke-miterlimit: 4; fill: rgb(255,255,255); fill-rule: nonzero; opacity: 1;" vector-effect="non-scaling-stroke"  transform=" translate(-195.25, -177.02)" d="M 144.719 184.516 L 245.791 184.516 C 255.707 184.209 255.7 169.819 245.791 169.516 L 144.719 169.516 C 134.802 169.822 134.81 184.212 144.719 184.516 z" stroke-linecap="round" />
</g>
<g transform="matrix(1.3 0 0 1.3 336.78 540.72)"  >
<path style="stroke: none; stroke-width: 1; stroke-dasharray: none; stroke-linecap: butt; stroke-dashoffset: 0; stroke-linejoin: miter; stroke-miterlimit: 4; fill: rgb(255,255,255); fill-rule: nonzero; opacity: 1;" vector-effect="non-scaling-stroke"  transform=" translate(-87.17, -257.18)" d="M 87.173 282.32 C 101.078 282.32 112.392 271.008 112.392 257.102 C 111.124 223.69299999999998 63.217 223.70199999999997 61.95399999999999 257.102 C 61.95399999999999 271.008 73.268 282.32 87.173 282.32 z M 87.173 246.885 C 92.808 246.885 97.392 251.469 97.392 257.103 C 96.878 270.64 77.466 270.636 76.954 257.103 C 76.954 251.469 81.538 246.88500000000002 87.17299999999999 246.88500000000002 z" stroke-linecap="round" />
</g>
<g transform="matrix(1.3 0 0 1.3 453.54 540.61)"  >
<path style="stroke: none; stroke-width: 1; stroke-dasharray: none; stroke-linecap: butt; stroke-dashoffset: 0; stroke-linejoin: miter; stroke-miterlimit: 4; fill: rgb(255,255,255); fill-rule: nonzero; opacity: 1;" vector-effect="non-scaling-stroke"  transform=" translate(-176.99, -257.1)" d="M 144.719 264.602 L 209.268 264.602 C 219.184 264.29499999999996 219.177 249.90499999999997 209.268 249.60199999999998 L 144.719 249.60199999999998 C 134.802 249.90899999999996 134.81 264.299 144.719 264.602 z" stroke-linecap="round" />
</g>
<g transform="matrix(1.3 0 0 1.3 336.78 644.51)"  >
<path style="stroke: none; stroke-width: 1; stroke-dasharray: none; stroke-linecap: butt; stroke-dashoffset: 0; stroke-linejoin: miter; stroke-miterlimit: 4; fill: rgb(255,255,255); fill-rule: nonzero; opacity: 1;" vector-effect="non-scaling-stroke"  transform=" translate(-87.17, -337.03)" d="M 87.173 362.162 C 101.078 362.162 112.392 350.84999999999997 112.392 336.94399999999996 C 111.124 303.53499999999997 63.217 303.544 61.95399999999999 336.94399999999996 C 61.95399999999999 350.84899999999993 73.268 362.162 87.173 362.162 z M 87.173 326.726 C 92.808 326.726 97.392 331.31 97.392 336.944 C 96.878 350.481 77.466 350.47700000000003 76.954 336.944 C 76.954 331.31 81.538 326.726 87.17299999999999 326.726 z" stroke-linecap="round" />
</g>
<g transform="matrix(1.3 0 0 1.3 464.45 644.41)"  >
<path style="stroke: none; stroke-width: 1; stroke-dasharray: none; stroke-linecap: butt; stroke-dashoffset: 0; stroke-linejoin: miter; stroke-miterlimit: 4; fill: rgb(255,255,255); fill-rule: nonzero; opacity: 1;" vector-effect="non-scaling-stroke"  transform=" translate(-185.38, -336.94)" d="M 144.719 344.444 L 226.04 344.444 C 235.956 344.137 235.94899999999998 329.747 226.04 329.444 L 144.719 329.444 C 134.802 329.75100000000003 134.81 344.141 144.719 344.444 z" stroke-linecap="round" />
</g>
</svg>