<svg id="Layer_1" enable-background="new 0 0 511.962 511.962" height="512" viewBox="0 0 511.962 511.962" width="512" xmlns="http://www.w3.org/2000/svg"><g><path d="m382.931 367.678c13.333 0 24.18-10.834 24.18-24.151v-9.15h9.18c32.042-1.218 32.017-47.095 0-48.302h-9.18v-9.15c-1.219-32.004-47.152-31.98-48.359 0v9.15h-9.18c-32.04 1.218-32.017 47.095 0 48.302h9.18v9.15c-.001 13.317 10.846 24.151 24.179 24.151zm-33.36-48.301c-12.152-.431-12.142-17.874 0-18.302h16.68c4.143 0 7.5-3.357 7.5-7.5v-16.65c.432-12.115 17.931-12.106 18.359 0v16.65c0 4.143 3.357 7.5 7.5 7.5h16.68c12.152.432 12.144 17.874 0 18.302h-16.68c-4.143 0-7.5 3.357-7.5 7.5v16.65c-.432 12.115-17.931 12.106-18.359 0v-16.65c0-4.143-3.357-7.5-7.5-7.5z"/><path d="m511.767 264.52c-.347-40.001-29.206-74.288-69.329-72.235-17.621.82-36.016 8.534-53.367 22.315-3.131-62.701-10.022-108.366-13.986-130.597-2.264-12.687-12.354-22.427-25.107-24.237-14.243-2.022-37.142-4.799-67.185-6.897-.058-.397-.102-.801-.164-1.196-1.754-11.119-11.171-19.504-22.392-19.937-6.967-.268-16.195-.563-27.374-.787-8.477-41.279-66.755-41.25-75.217 0-11.179.225-20.407.519-27.375.788-11.225.432-20.643 8.819-22.395 19.945-.062.392-.105.793-.162 1.188-30.063 2.098-52.964 4.877-67.2 6.897-12.756 1.81-22.846 11.549-25.105 24.235-1.761 9.887-3.442 20.665-4.999 32.038-.562 4.104 2.31 7.886 6.414 8.447 4.02.578 7.904-2.292 8.447-6.414 1.529-11.174 3.18-21.752 4.905-31.44 1.12-6.289 6.121-11.118 12.445-12.015 13.645-1.938 35.408-4.583 63.951-6.63-.088 6.144.391 12.311 1.304 18.17 1.751 11.127 11.17 19.516 22.397 19.945 24.08 1.421 105.882 1.421 129.958 0 11.224-.43 20.643-8.814 22.396-19.937.915-5.859 1.395-12.03 1.308-18.178 28.524 2.047 50.283 4.692 63.934 6.629 6.322.897 11.325 5.728 12.447 12.02 3.838 21.525 10.468 65.399 13.623 125.746-26.847-20.159-55.606-25.538-79.706-14.672-23.815 10.737-39.19 36.139-40.125 66.29.196 66.175 50.967 114.461 112.736 147.611.702.37 1.415.709 2.135 1.028-2.97 28.05-6.31 49.27-8.657 62.434-1.124 6.311-6.13 11.149-12.455 12.043-24.438 4.724-129.717 12.283-192.364 9.075-4.115-.136-7.606 3.123-7.727 7.266-.128 4.141 3.125 7.6 7.266 7.727 63.653 3.244 169.885-4.411 194.922-9.215 12.764-1.803 22.86-11.553 25.126-24.263 2.352-13.19 5.68-34.322 8.66-62.133 5.25-.125 10.479-1.436 15.265-3.962 26.672-14.073 49.225-30.257 67.033-48.101 2.926-2.932 2.921-7.681-.011-10.606-2.933-2.926-7.682-2.922-10.606.011-16.742 16.775-38.079 32.061-63.416 45.431-5.689 3.002-12.48 3.002-18.17 0-67.088-35.401-106.244-85.45-104.743-133.881 2.662-57.605 56.326-74.843 100.407-36.476 7.778 6.453 19.067 6.452 26.842-.001 29.398-24.392 60.705-27.556 81.706-8.257 11.596 10.654 18.242 26.697 18.714 45.172.541 21.139-6.994 43.548-21.791 64.803-2.366 3.399-1.529 8.074 1.87 10.44 3.399 2.367 8.075 1.528 10.44-1.87 16.636-23.896 25.1-49.401 24.477-73.757zm-316.512-249.722c10.261 0 18.987 6.674 22.08 15.907-13.456-.166-30.704-.166-44.161 0 3.094-9.233 11.819-15.907 22.081-15.907zm72.558 69.03c-.642 4.065-4.07 7.129-8.154 7.286-23.829 1.407-104.974 1.407-128.81 0-4.085-.157-7.514-3.222-8.153-7.288-1.518-9.573-1.518-20.24 0-29.813.64-4.065 4.068-7.131 8.153-7.288 23.831-1.415 104.984-1.415 128.811 0 4.083.158 7.512 3.222 8.153 7.286 1.52 9.567 1.52 20.25 0 29.817z"/><path d="m121.492 494.679c-35.705-2.088-62.595-5.265-78.865-7.562-6.327-.893-11.331-5.721-12.452-12.015-12.943-51.484-21.535-239.077-8.641-326.125.437-4.119-2.549-7.812-6.668-8.248-4.125-.438-7.813 2.55-8.248 6.668-13.075 87.96-4.319 278.364 8.789 330.336 2.261 12.694 12.356 22.435 25.122 24.237 16.548 2.336 43.876 5.566 80.088 7.684 4.09.253 7.694-2.907 7.925-7.05.242-4.135-2.914-7.683-7.05-7.925z"/><path d="m87.173 442.114c13.905 0 25.219-11.312 25.219-25.218-1.268-33.409-49.175-33.4-50.438 0 0 13.905 11.314 25.218 25.219 25.218zm0-35.436c5.635 0 10.219 4.584 10.219 10.218-.514 13.537-19.926 13.533-20.438 0 0-5.634 4.584-10.218 10.219-10.218z"/><path d="m283.954 416.896c0-4.143-3.357-7.5-7.5-7.5h-131.735c-9.916.307-9.909 14.697 0 15h131.735c4.143 0 7.5-3.357 7.5-7.5z"/><path d="m87.173 202.233c13.905 0 25.219-11.312 25.219-25.218-1.268-33.409-49.175-33.4-50.438 0 0 13.906 11.314 25.218 25.219 25.218zm0-35.435c5.635 0 10.219 4.584 10.219 10.218-.514 13.537-19.926 13.533-20.438 0 0-5.634 4.584-10.218 10.219-10.218z"/><path d="m144.719 184.516h101.072c9.916-.307 9.909-14.697 0-15h-101.072c-9.917.306-9.909 14.696 0 15z"/><path d="m87.173 282.32c13.905 0 25.219-11.312 25.219-25.218-1.268-33.409-49.175-33.4-50.438 0 0 13.906 11.314 25.218 25.219 25.218zm0-35.435c5.635 0 10.219 4.584 10.219 10.218-.514 13.537-19.926 13.533-20.438 0 0-5.634 4.584-10.218 10.219-10.218z"/><path d="m144.719 264.602h64.549c9.916-.307 9.909-14.697 0-15h-64.549c-9.917.307-9.909 14.697 0 15z"/><path d="m87.173 362.162c13.905 0 25.219-11.312 25.219-25.218-1.268-33.409-49.175-33.4-50.438 0 0 13.905 11.314 25.218 25.219 25.218zm0-35.436c5.635 0 10.219 4.584 10.219 10.218-.514 13.537-19.926 13.533-20.438 0 0-5.634 4.584-10.218 10.219-10.218z"/><path d="m144.719 344.444h81.321c9.916-.307 9.909-14.697 0-15h-81.321c-9.917.307-9.909 14.697 0 15z"/></g></svg>